<?xml version="1.0" encoding="iso-8859-1"?>
<!-- Generator: Adobe Illustrator 13.0.0, SVG Export Plug-In . SVG Version: 6.00 Build 14948)  -->
<!DOCTYPE svg PUBLIC "-//W3C//DTD SVG 1.1//EN" "http://www.w3.org/Graphics/SVG/1.1/DTD/svg11.dtd">
<svg version="1.1" id="Layer_1" xmlns="http://www.w3.org/2000/svg" xmlns:xlink="http://www.w3.org/1999/xlink" x="0px" y="0px"
	 width="486px" height="291px" viewBox="0 0 486 291" style="enable-background:new 0 0 486 291;" xml:space="preserve">
<defs>
<filter id="Gaussian_Blur">
<feGaussianBlur in="SourceGraphic" stdDeviation="2" />
</filter>
<filter id="Gaussian_Blur2">
<feGaussianBlur in="SourceGraphic" stdDeviation="2" />
</filter>
<filter id="Gaussian_Blur3">
<feGaussianBlur in="SourceGraphic" stdDeviation="1" />
</filter>
</defs>
<g id="Layer_3">
	<path style="fill:#303030;" d="M393,235.25C392.75,236,369.5,274,369.5,274l-4.75-6l9.5-22L393,235.25z"/>
	
		<linearGradient id="SVGID_1_" gradientUnits="userSpaceOnUse" x1="180.833" y1="-153.4165" x2="534" y2="-153.4165" gradientTransform="matrix(1 0 0 -1 -156 44)">
		<stop  offset="0" style="stop-color:#1F1F1F"/>
		<stop  offset="1" style="stop-color:#2A2A2A"/>
	</linearGradient>
	<polyline style="fill:url(#SVGID_1_);" points="24.833,120.833 27.5,146 369.5,274 378,247.75 	"/>
</g>
<g id="Layer_5">
	<polygon style="fill:#D2D0C3;" points="384.334,236.334 475,86 473.917,98.167 380.875,258 	"/>
</g>
<g id="Layer_4">
	<path style="fill:#303030;" d="M12,124"/>
	
		<radialGradient id="SVGID_2_" cx="415.333" cy="-100" r="76.3908" gradientTransform="matrix(1 0 0 -1 -156 44)" gradientUnits="userSpaceOnUse">
		<stop  offset="0.0048" style="stop-color:#FFFFFF"/>
		<stop  offset="1" style="stop-color:#C9C3A1"/>
	</radialGradient>
	<polygon style="fill:url(#SVGID_2_);" points="12.5,124.5 8.5,108 385,238 380.875,258 	"/>
</g>
<g id="Layer_2">
	
		<linearGradient id="SVGID_3_" gradientUnits="userSpaceOnUse" x1="534.5605" y1="-190.7637" x2="330.5607" y2="16.7363" gradientTransform="matrix(1 0 0 -1 -156 44)">
		<stop  offset="0.0048" style="stop-color:#C9C3A1"/>
		<stop  offset="1" style="stop-color:#51503E"/>
	</linearGradient>
	<polyline style="fill:url(#SVGID_3_);" points="9.625,107.75 176.625,15.75 476.125,85.75 386.125,237.75 	"/>
	<g id="Layer_39">
		<ellipse style="fill:#0C0101;" cx="355.375" cy="66.875" rx="7.75" ry="3.875"/>
		
			<linearGradient id="SVGID_4_" gradientUnits="userSpaceOnUse" x1="318.375" y1="16" x2="350.875" y2="16" gradientTransform="matrix(1 0 0 -1 -156 44)">
			<stop  offset="0.7321" style="stop-color:#FFFFFF"/>
			<stop  offset="1" style="stop-color:#D2D0C3"/>
		</linearGradient>
		<ellipse style="fill:url(#SVGID_4_);" cx="178.625" cy="28" rx="16.25" ry="7.25"/>
	</g>
</g>
<g id="Layer_7">
	
		<linearGradient id="SVGID_5_" gradientUnits="userSpaceOnUse" x1="232" y1="-46" x2="478" y2="-46" gradientTransform="matrix(1 0 0 -1 -156 44)">
		<stop  offset="0" style="stop-color:#0C0C0C"/>
		<stop  offset="1" style="stop-color:#6C6C62"/>
	</linearGradient>
	<ellipse style="fill:url(#SVGID_5_);stroke:#1A1A1A;" cx="199" cy="90" rx="123" ry="56.667"/>
	<g>
		
			<linearGradient id="SVGID_6_" gradientUnits="userSpaceOnUse" x1="237" y1="-43.333" x2="476" y2="-43.333" gradientTransform="matrix(1 0 0 -1 -156 44)">
			<stop  offset="0" style="stop-color:#0C0C0C"/>
			<stop  offset="1" style="stop-color:#6C6C62"/>
		</linearGradient>
		<ellipse style="fill:url(#SVGID_6_);" cx="200.5" cy="87.333" rx="119.5" ry="54"/>
		<path style="opacity:0.5;fill:#1A1A1A;" d="M115.794,125.973c-21.69-9.806-35.271-23.396-35.296-38.639l0,0
			c0.025-15.245,13.605-28.835,35.296-38.641l0,0c21.711-9.81,51.645-15.859,84.705-15.861l0,0v0.502v0.5
			c-32.938-0.002-62.753,6.035-84.292,15.77l0,0c-21.562,9.739-34.731,23.149-34.708,37.73l0,0
			c-0.022,14.579,13.147,27.989,34.708,37.728l0,0c21.539,9.733,51.354,15.772,84.292,15.77l0,0
			c32.937,0.002,62.753-6.037,84.292-15.77l0,0c21.562-9.739,34.729-23.149,34.706-37.728l0,0
			c0.022-14.581-13.145-27.991-34.706-37.73l0,0c-21.539-9.735-51.356-15.772-84.292-15.77l0,0v-0.5v-0.502
			c33.061,0.002,62.994,6.051,84.706,15.861l0,0c21.688,9.806,35.271,23.396,35.295,38.641l0,0
			c-0.024,15.243-13.606,28.833-35.295,38.639l0,0c-21.712,9.808-51.645,15.859-84.706,15.861l0,0
			C167.439,141.832,137.505,135.78,115.794,125.973L115.794,125.973z"/>
	</g>
</g>
<g id="Layer_6">
	
		<linearGradient id="SVGID_7_" gradientUnits="userSpaceOnUse" x1="354.1758" y1="-28.6641" x2="357.5088" y2="-38.9976" gradientTransform="matrix(1 0 0 -1 -156 44)">
		<stop  offset="0.0048" style="stop-color:#000000"/>
		<stop  offset="0.5072" style="stop-color:#2A2A2A"/>
		<stop  offset="1" style="stop-color:#000000"/>
	</linearGradient>
	<ellipse style="fill:url(#SVGID_7_);" cx="201.833" cy="84" rx="116.833" ry="54"/>
</g>
<g id="Layer_8">
	<linearGradient id="SVGID_8_" gradientUnits="userSpaceOnUse" x1="169" y1="75" x2="244.5" y2="75">
		<stop  offset="0" style="stop-color:#6C6C62"/>
		<stop  offset="1" style="stop-color:#8F8A7D"/>
	</linearGradient>
	<ellipse style="fill:url(#SVGID_8_);" cx="206.75" cy="75" rx="37.75" ry="18"/>
</g>
<g id="Layer_9">
	<path d="M211.167,76.333h-6.334l-11-5.333c0,0-0.535-0.601,3.205-0.601c1.948,0,3.129,0.601,3.129,0.601L211.167,76.333z"/>
	
		<linearGradient id="SVGID_9_" gradientUnits="userSpaceOnUse" x1="360.833" y1="-27.1665" x2="367.166" y2="-27.1665" gradientTransform="matrix(1 0 0 -1 -156 44)">
		<stop  offset="0" style="stop-color:#757269"/>
		<stop  offset="0.2775" style="stop-color:#D2D0C3"/>
		<stop  offset="1" style="stop-color:#B5B594"/>
	</linearGradient>
	<rect x="204.833" y="66" style="fill:url(#SVGID_9_);" width="6.333" height="10.333"/>
</g>
<g id="Layer_10">
	
		<radialGradient id="SVGID_10_" cx="554" cy="-53.667" r="82.9391" gradientTransform="matrix(1 0 0 -1 -156 44)" gradientUnits="userSpaceOnUse">
		<stop  offset="0" style="stop-color:#1F1F1F"/>
		<stop  offset="1" style="stop-color:#000000"/>
	</radialGradient>
	<path style="fill:url(#SVGID_10_);" d="M444.105,103.316c3.102,11.871-15.991,21.35-42.646,21.173
		c-26.651-0.176-50.775-9.944-53.878-21.816c-3.103-11.871,15.991-21.352,42.644-21.174
		C416.88,81.677,441.003,91.443,444.105,103.316z"/>
</g>
<g id="Layer_11">
	
		<linearGradient id="SVGID_11_" gradientUnits="userSpaceOnUse" x1="515.667" y1="-55.0576" x2="586.5" y2="-55.0576" gradientTransform="matrix(1 0 0 -1 -156 44)">
		<stop  offset="0" style="stop-color:#000000"/>
		<stop  offset="0.5455" style="stop-color:#2A2A2A"/>
		<stop  offset="1" style="stop-color:#000000"/>
	</linearGradient>
	<path style="fill:url(#SVGID_11_);" d="M359.667,100.667L360,89l4.25-4c0,0,27.75-4.75,36.25-4.5s30,5.25,30,17.5s0,12.25,0,12.25
		s-9.622,7.279-32.375,7.375C368.5,117.75,359.667,100.667,359.667,100.667z"/>
</g>
<g id="Layer_10_copy">
	<path style="fill:#0C0C0C;" d="M425.535,92.23c1.806,6.916-9.315,12.438-24.843,12.334c-15.526-0.103-29.579-5.793-31.388-12.709
		c-1.808-6.915,9.316-12.438,24.844-12.334C409.675,79.625,423.727,85.313,425.535,92.23z"/>
</g>
<g id="Layer_44">
	<linearGradient id="SVGID_12_" gradientUnits="userSpaceOnUse" x1="368.667" y1="90.8193" x2="427.334" y2="90.8193">
		<stop  offset="0" style="stop-color:#595445"/>
		<stop  offset="1" style="stop-color:#D8D6AD"/>
	</linearGradient>
	<path style="fill:url(#SVGID_12_);" d="M368.834,91.167l-0.167-8.667c0,0,29.334-7.167,33.834-5.667s24.833,11.5,24.833,11.5
		s-0.503,16.225-23.167,16.667C378.501,105.5,368.834,91.167,368.834,91.167z"/>
</g>
<g id="Layer_46">
	<linearGradient id="SVGID_13_" gradientUnits="userSpaceOnUse" x1="408.2109" y1="107.0933" x2="395.2109" y2="78.3433">
		<stop  offset="0" style="stop-color:#DEDEBA"/>
		<stop  offset="1" style="stop-color:#87826B"/>
	</linearGradient>
	<ellipse style="fill:url(#SVGID_13_);" cx="398.334" cy="85.25" rx="29.833" ry="12.75"/>
</g>
<g id="Layer_42">
	<path d="M383.834,117.313l3.479-2.625l8.438,2c0,0-8.416,9.313-10.083,9.313S371,120.667,371,120.667L342.333,112l2.334-4L355,109
		L383.834,117.313z"/>
	<path style="fill:none;stroke:#000000;stroke-width:5;" d="M350.834,98.667c0,0-28.334,4.5-34.667,5.833s-17.001,10-19.667,18.667
		s-10.669,7.813-15,8.167c-8.167,0.667-23-8-23-8"/>
</g>
<g id="Layer_13">
	
		<linearGradient id="SVGID_14_" gradientUnits="userSpaceOnUse" x1="548.6885" y1="-24.9414" x2="551.4384" y2="-36.941" gradientTransform="matrix(1 0 0 -1 -156 44)">
		<stop  offset="0.0048" style="stop-color:#FFFFFF"/>
		<stop  offset="1" style="stop-color:#D2D0C3"/>
	</linearGradient>
	<path style="fill:url(#SVGID_14_);" d="M358.25,76.875L426.375,59.5L431,70.75l-69.75,17.125c0,0-2.125-1-3.25-5
		S358.25,76.875,358.25,76.875z"/>
</g>
<g id="Layer_14">
	<path d="M405.375,64.659c0,0,4.969-0.381,6.625,2.314c1.875,3.051,0,9.152,0,9.152l7.125-0.105c0,0,2-4.944-0.25-9.678
		c-2.25-4.734-8.5-5.049-10.125-4.734S405.375,64.659,405.375,64.659z"/>
	<path d="M421.25,60.678c0,0,4.969-0.414,6.625,2.512c1.875,3.312,0,9.935,0,9.935L435,73.011c0,0,2-5.367-0.25-10.506
		c-2.25-5.139-8.5-5.481-10.125-5.139C423,57.708,421.25,60.678,421.25,60.678z"/>
</g>
<g id="Layer_47">
	<path style="fill:#7F7D73;" d="M362.166,82.334c0.563,3.083-0.079,5.583-1.438,5.583c-1.358,0-2.917-2.499-3.479-5.583
		c-0.564-3.084,0.079-5.583,1.438-5.583C360.045,76.751,361.602,79.25,362.166,82.334z"/>
</g>
<g id="Layer_15">
	<path style="fill:none;stroke:#F2F2F2;stroke-width:4;" d="M273.666,112.167c0,0,43.167,2.167,49.667-6.667
		c6.22-8.453,7.666-14,16.333-17.167s20.5-6.167,20.5-6.167"/>
</g>
<g id="Layer_21">
	<polygon style="fill:#6C6C4F;" points="233,113.417 225.625,122.875 224.417,117.5 224.833,111.167 	"/>
</g>
<g id="Layer_18">
	
		<linearGradient id="SVGID_15_" gradientUnits="userSpaceOnUse" x1="363.75" y1="-74.375" x2="381.625" y2="-74.375" gradientTransform="matrix(1 0 0 -1 -156 44)">
		<stop  offset="0" style="stop-color:#8C7B50"/>
		<stop  offset="1" style="stop-color:#BAB380"/>
	</linearGradient>
	<polyline style="fill:url(#SVGID_15_);" points="207.75,114 210.625,122.75 225.625,122.875 224.417,113.875 	"/>
</g>
<g id="Layer_19">
	<polyline style="fill:#D8D6AD;" points="211.833,122.792 208.333,122.875 206,114.75 212.75,108.375 226.5,108.625 225,117.75 
		211,117.875 	"/>
</g>
<g id="Layer_20">
	<polygon style="fill:#C9C49E;" points="206,114.75 225.458,115.25 225.542,108.5 212.75,108.375 	"/>
</g>
<g id="Layer_16">
	<path style="fill:#948F7D;" d="M219.667,107h57.5l-0.333,11.833l-20.5-0.333c0,0-0.749-4.417-4.333-4.667
		c-3.491-0.244-35.917-0.25-35.917-0.25L219.667,107z"/>
</g>
<g id="Layer_22">
	
		<linearGradient id="SVGID_16_" gradientUnits="userSpaceOnUse" x1="402.4658" y1="-69.9009" x2="402.7158" y2="-75.1509" gradientTransform="matrix(1 0 0 -1 -156 44)">
		<stop  offset="0.0048" style="stop-color:#D2D0AB"/>
		<stop  offset="0.9091" style="stop-color:#6C6C62"/>
	</linearGradient>
	<path style="fill:url(#SVGID_16_);" d="M216.625,112.5L277,112.75l-0.167,6.083l-20.458,0.667c0,0,0.75-2.5-1.5-3.375
		s-39-2.25-39-2.25L216.625,112.5z"/>
</g>
<g id="Layer_17">
	
		<linearGradient id="SVGID_17_" gradientUnits="userSpaceOnUse" x1="390.167" y1="-65.333" x2="396.667" y2="-65.333" gradientTransform="matrix(1 0 0 -1 -156 44)">
		<stop  offset="0" style="stop-color:#757269"/>
		<stop  offset="0.5742" style="stop-color:#D2D0C3"/>
		<stop  offset="1" style="stop-color:#B5B594"/>
	</linearGradient>
	<ellipse style="fill:url(#SVGID_17_);" cx="237.417" cy="109.333" rx="3.25" ry="1.167"/>
	
		<linearGradient id="SVGID_18_" gradientUnits="userSpaceOnUse" x1="397.667" y1="-65.333" x2="404.167" y2="-65.333" gradientTransform="matrix(1 0 0 -1 -156 44)">
		<stop  offset="0" style="stop-color:#757269"/>
		<stop  offset="0.5742" style="stop-color:#D2D0C3"/>
		<stop  offset="1" style="stop-color:#B5B594"/>
	</linearGradient>
	<ellipse style="fill:url(#SVGID_18_);" cx="244.917" cy="109.333" rx="3.25" ry="1.167"/>
	
		<linearGradient id="SVGID_19_" gradientUnits="userSpaceOnUse" x1="406.167" y1="-65.333" x2="412.667" y2="-65.333" gradientTransform="matrix(1 0 0 -1 -156 44)">
		<stop  offset="0" style="stop-color:#757269"/>
		<stop  offset="0.5742" style="stop-color:#D2D0C3"/>
		<stop  offset="1" style="stop-color:#B5B594"/>
	</linearGradient>
	<ellipse style="fill:url(#SVGID_19_);" cx="253.417" cy="109.333" rx="3.25" ry="1.167"/>
</g>
<g id="Layer_23">
	<polygon style="fill:#6C6C62;" points="377.5,83.625 397,95.5 396.125,117.75 406,101 408.83,91.17 386.625,78 381,80.67 	"/>
	<g id="XMLID_2_">
		<g>
			<polygon style="fill:#0C0C0C;" points="408.83,91.17 396.33,107 388.17,105 399.5,92.67 381,80.67 387.5,76.33 			"/>
		</g>
	</g>
	<polygon style="fill:#7A7D69;" points="388.17,105 386.875,115.25 396.125,117.75 396.688,106.688 	"/>
</g>
<g id="Layer_24">
	<linearGradient id="SVGID_20_" gradientUnits="userSpaceOnUse" x1="418.25" y1="80.999" x2="434.584" y2="80.999">
		<stop  offset="0" style="stop-color:#4D4A33"/>
		<stop  offset="1" style="stop-color:#FFFFFF"/>
	</linearGradient>
	<path style="fill:url(#SVGID_20_);" d="M434.584,81.958c0,2.485-3.656,4.5-8.167,4.5s-8.167-2.015-8.167-4.5s2.5-6.333,8.25-6.417
		C432.166,75.459,434.584,79.474,434.584,81.958z"/>
	<ellipse style="fill:#0C0C0C;" cx="426.313" cy="80" rx="8.188" ry="4.5"/>
</g>
<g id="Layer_25">
	<polygon style="fill:#8F8C6B;" points="374.678,72.842 376.833,56.917 397.5,62.333 395.167,65.5 379.417,61.417 378.75,71.75 	"/>
</g>
<g id="Layer_27">
	<path style="fill:#FFFFFF;" d="M404.188,62.125c0,0,4.313,3.015,5.688,6.125c2.875,6.5-2,13.5-2,13.5l-6.25-1.188L401,71.5
		l-7.688-5.313L397,62.75L404.188,62.125z"/>
</g>
<g id="Layer_26">
	<polygon style="fill:#D6D9A6;" points="381.333,55.417 404.75,62.25 397.333,62.833 376.833,56.917 	"/>
	<path style="fill:#8E8C80;" d="M392.688,68.875c0,0,4.328,0.472,5.688,2.313c3,4.063,1.625,8.125,1.625,8.125l1.625,1.25
		c0,0,3.063-6.313,0.563-9.938c-2.344-3.396-8.875-4.438-8.875-4.438L392.688,68.875z"/>
</g>
<g id="Layer_30">
	<path style="fill:#2A2A2A;" d="M211.793,164.977c-0.515,1.104-1.717,1.762-2.683,1.465l-21.658-6.631
		c-0.966-0.297-1.333-1.433-0.817-2.537l3.322-7.125c0.515-1.104,1.716-1.76,2.683-1.463l21.658,6.631
		c0.966,0.297,1.333,1.432,0.818,2.535L211.793,164.977z"/>
</g>
<g id="Layer_31">
	<path d="M191.875,152.5l-18.25-0.25c0,0-1.995,0.506-2.125,2c-0.25,2.875,4.125,3.125,4.125,3.125h16.125L191.875,152.5z"/>
</g>
<g id="Layer_4_1_">
	<circle style="fill:#FFCC00;filter:url(#Gaussian_Blur2);opacity:0.6" cx="203" cy="143" r="6.25"/>
</g>
<g id="Layer_29">
	
		<linearGradient id="SVGID_21_" gradientUnits="userSpaceOnUse" x1="346" y1="-106.646" x2="353.5" y2="-106.646" gradientTransform="matrix(1 0 0 -1 -156 44)">
		<stop  offset="0.0048" style="stop-color:#5E5C3D"/>
		<stop  offset="0.1579" style="stop-color:#D2D0BF"/>
		<stop  offset="0.7273" style="stop-color:#FFFFFF"/>
		<stop  offset="1" style="stop-color:#D2D0C3"/>
	</linearGradient>
	<path style="fill:url(#SVGID_21_);" d="M197.5,155.5c0,0-1.187,2.375-3.563,2.375S190,155.5,190,155.5v-12.083h7.5V155.5z"/>
</g>
<g id="Layer_28">
	<ellipse style="fill:#D2D0C3;" cx="193.667" cy="143.417" rx="3.667" ry="1.917"/>
</g>
<g id="Layer_32">
	<polygon points="13.167,104.667 37,91.167 73.167,102.333 60.138,110.956 87.5,121.667 79.5,128.833 	"/>
</g>
<g id="Layer_33">
	<polygon style="fill:#D2D0C3;" points="18.333,102.167 38.667,90.5 69.5,101.833 50,114.333 	"/>
	
		<linearGradient id="SVGID_22_" gradientUnits="userSpaceOnUse" x1="226.5479" y1="-72.4082" x2="224.1747" y2="-78.9143" gradientTransform="matrix(1 0 0 -1 -156 44)">
		<stop  offset="0.02" style="stop-color:#D2D0BF"/>
		<stop  offset="0.5981" style="stop-color:#FFFFFF"/>
		<stop  offset="1" style="stop-color:#D2D0C3"/>
	</linearGradient>
	<polygon style="fill:url(#SVGID_22_);" points="54,117.333 54,114.667 60.833,111.167 85.5,120 85.417,122.75 79.667,127.333 	"/>
</g>
<g id="Layer_34">
	
		<linearGradient id="SVGID_23_" gradientUnits="userSpaceOnUse" x1="490.75" y1="-137.25" x2="511.5" y2="-137.25" gradientTransform="matrix(1 0 0 -1 -156 44)">
		<stop  offset="0.0766" style="stop-color:#6C6C62"/>
		<stop  offset="1" style="stop-color:#0C0C0C"/>
	</linearGradient>
	<ellipse style="fill:url(#SVGID_23_);" cx="345.125" cy="181.25" rx="10.375" ry="5.5"/>
	<g>
		<ellipse cx="345.375" cy="178.25" rx="9.375" ry="5.5"/>
		<ellipse style="fill:#050504;" cx="345.387" cy="178.07" rx="9.064" ry="5.21"/>
		<ellipse style="fill:#0A0A08;" cx="345.397" cy="177.89" rx="8.756" ry="4.92"/>
		<ellipse style="fill:#0F0F0C;" cx="345.409" cy="177.71" rx="8.445" ry="4.63"/>
		<ellipse style="fill:#141410;" cx="345.421" cy="177.53" rx="8.135" ry="4.341"/>
		<ellipse style="fill:#191914;" cx="345.432" cy="177.351" rx="7.825" ry="4.051"/>
		<ellipse style="fill:#1D1F17;" cx="345.443" cy="177.171" rx="7.516" ry="3.762"/>
		<ellipse style="fill:#22241B;" cx="345.454" cy="176.991" rx="7.206" ry="3.472"/>
		<ellipse style="fill:#27291F;" cx="345.466" cy="176.811" rx="6.896" ry="3.182"/>
		<ellipse style="fill:#2C2E23;" cx="345.478" cy="176.631" rx="6.585" ry="2.892"/>
		<ellipse style="fill:#313327;" cx="345.488" cy="176.451" rx="6.276" ry="2.603"/>
		<ellipse style="fill:#36382B;" cx="345.5" cy="176.271" rx="5.966" ry="2.313"/>
	</g>
</g>
<g id="Layer_38">
	<linearGradient id="SVGID_24_" gradientUnits="userSpaceOnUse" x1="357.5" y1="176.375" x2="408.1074" y2="176.375">
		<stop  offset="0" style="stop-color:#C9C3C7"/>
		<stop  offset="1" style="stop-color:#8F8A7D"/>
	</linearGradient>
	<polygon style="fill:url(#SVGID_24_);" points="373.75,205.75 408.107,151.923 394.5,147 357.5,199.5 	"/>
</g>
<g id="Layer_37">
	
		<line style="fill:none;stroke:#8C7B50;stroke-width:2;stroke-linecap:round;" x1="384.313" y1="209.938" x2="418.252" y2="156.228"/>
	<line style="fill:none;stroke:#9E8A57;stroke-linecap:round;" x1="394.5" y1="147" x2="418.5" y2="155.75"/>
	<line style="fill:none;stroke:#D2D0C3;stroke-linecap:round;" x1="394.5" y1="147" x2="357.5" y2="199.5"/>
	<line style="fill:none;stroke:#757269;stroke-width:2;stroke-linecap:round;" x1="372.5" y1="201.75" x2="403" y2="156.75"/>
</g>
<g id="Layer_36">
	<polygon style="fill:#0C0C0C;" points="385.813,205.813 365.5,199 364.5,192.75 370.75,187 376.75,187 392.5,195.188 	"/>
</g>
<g id="Layer_3_1_">
	<path style="fill:#FF0000;filter:url(#Gaussian_Blur);opacity:0.4" d="M88.728,84.274c-0.244,2.288-4.182,4.859-8.795,5.744c-4.613,0.884-8.155-0.253-7.91-2.542
		c0.244-2.288,4.182-4.859,8.795-5.744S88.972,81.985,88.728,84.274z"/>
	<circle style="fill:#FFCC00;filter:url(#Gaussian_Blur3)" cx="197.375" cy="146.125" r="1.875"/>
</g>
<g id="Layer_35">
	<polygon style="fill:#D2D0C3;" points="368.75,198 368.75,193.5 373.5,186.25 375.75,180.25 397.75,187 387,205 	"/>
</g>
<g id="Layer_2_1_">
	<polygon style="fill:#757269;" points="368.75,193.5 387.169,199.284 387,205 368.75,198 	"/>
	<polygon style="fill:#EAE9DF;" points="373.5,186.25 391.21,192.027 387.169,199.284 368.75,193.5 	"/>
</g>
<g id="Layer_41">
	<polygon points="57.875,91.75 41.625,89.875 52.625,83.75 59.125,84.125 	"/>
</g>
<g id="Layer_40">
	
		<linearGradient id="SVGID_25_" gradientUnits="userSpaceOnUse" x1="207.25" y1="-41.7119" x2="225.375" y2="-41.7119" gradientTransform="matrix(1 0 0 -1 -156 44)">
		<stop  offset="0" style="stop-color:#D2D0C3"/>
		<stop  offset="0.3062" style="stop-color:#FFFFFF"/>
	</linearGradient>
	<path style="fill:url(#SVGID_25_);" d="M51.25,80.313l0.375,9.938c0,0,3.318,3.471,10.5,2.5c6.938-0.938,7.25-3.75,7.25-3.75
		l-0.5-9.25l-9.5-1.25L51.25,80.313z"/>
	<ellipse style="fill:#1F1F1F;" cx="60.063" cy="80.063" rx="8.875" ry="3.063"/>
</g>
<g id="Layer_45">
	<polygon style="fill:#757269;" points="65.708,121.917 65.833,119.042 72.875,115.5 74.469,116.094 67.417,119.667 67.375,122.583 
			"/>
	<polygon style="fill:#757269;" points="50,114.333 50.167,113.5 19.083,101.917 18.333,102.167 	"/>
	<polygon style="fill:#FFFFFF;" points="50.167,113.5 69.167,101.667 69.5,101.833 50,114.333 	"/>
</g>
<polygon style="opacity:0.5;fill:#4D4A42;" points="54,114.667 79.5,124.5 79.667,127.333 54,117.333 "/>
</svg>
