<svg fill="#2f3c53" viewBox="0 0 100 100" xmlns="http://www.w3.org/2000/svg"><path d="M98.58 95.885l-.118-.117-.006-.008-.006-.004L52.69 50 98.446 4.25c.002-.004.008-.004.01-.008.004-.004.004-.008.008-.01l.116-.116-.024-.023c.614-.745.598-1.84-.1-2.536-.696-.698-1.79-.713-2.536-.1l-.023-.023-.12.12-.006.003-.004.006-45.76 45.755L4.36 1.68l-.023.024c-.037-.047-.053-.102-.096-.146a1.899 1.899 0 0 0-2.685 2.685c.043.043.098.059.145.096l-.023.024L47.323 50 1.678 95.64l.023.024c-.047.037-.102.053-.145.096a1.898 1.898 0 1 0 2.685 2.684c.043-.041.059-.098.096-.145l.023.024 45.646-45.64 45.76 45.751c.001.004.001.008.005.01.004.004.008.004.01.008l.116.116.023-.024c.746.614 1.84.598 2.536-.1.698-.696.714-1.788.1-2.535l.024-.024z" fill-rule="evenodd"/></svg>
